<svg id="Layer_1" data-name="Layer 1" xmlns="http://www.w3.org/2000/svg" viewBox="0 0 774.52 198.35"><defs><style>.cls-1{fill:#12100b;}</style></defs><title>utn_standard_svart2</title><path class="cls-1" d="M152.12,426.27c0-52.62,28.88-95.29,64.5-95.29,12.71,0,24.55,5.43,34.54,14.8a99.23,99.23,0,0,0-135.52-87,173.32,173.32,0,0,1,19.63-1.1c38.31,0,69.36,12,69.36,26.9s-31.05,26.9-69.36,26.9c-29.36,0-54.46-7.08-64.58-17.07a99.18,99.18,0,0,0,81.43,155.79l2.06,0A138.82,138.82,0,0,1,152.12,426.27Z" transform="translate(-52.95 -251.9)"/><path class="cls-1" d="M320.67,292.91v27.8q0,9.09-4.79,13.58t-14.43,4.48q-9.79,0-14.58-4.48t-4.79-13.58v-27.8h9.49v26.3q0,5.52,2.44,8.31t7.29,2.79q4.88,0,7.38-2.81t2.5-8.3v-26.3Z" transform="translate(-52.95 -251.9)"/><path class="cls-1" d="M329.79,351.19V307.65h8.33v4.94a11.91,11.91,0,0,1,4.2-4.47,11.09,11.09,0,0,1,5.78-1.48q6.38,0,10,4.23t3.6,11.79q0,7.29-3.63,11.7a11.77,11.77,0,0,1-9.55,4.41,12.72,12.72,0,0,1-6.06-1.33,11.38,11.38,0,0,1-4.26-4.16q.15,1.13.23,2.46t.08,3v12.42Zm7.93-28.62a9.21,9.21,0,0,0,2,6.32,8,8,0,0,0,11.14,0,9.21,9.21,0,0,0,2-6.32,9.41,9.41,0,0,0-2-6.39,7,7,0,0,0-5.6-2.33,6.87,6.87,0,0,0-5.48,2.35A9.43,9.43,0,0,0,337.73,322.57Z" transform="translate(-52.95 -251.9)"/><path class="cls-1" d="M368.3,351.19V307.65h8.33v4.94a11.91,11.91,0,0,1,4.2-4.47,11.09,11.09,0,0,1,5.78-1.48q6.38,0,10,4.23t3.6,11.79q0,7.29-3.63,11.7a11.77,11.77,0,0,1-9.55,4.41,12.72,12.72,0,0,1-6.06-1.33,11.39,11.39,0,0,1-4.26-4.16q.15,1.13.23,2.46t.08,3v12.42Zm7.93-28.62a9.21,9.21,0,0,0,2,6.32,8,8,0,0,0,11.14,0,9.21,9.21,0,0,0,2-6.32,9.41,9.41,0,0,0-2-6.39,7,7,0,0,0-5.6-2.33,6.87,6.87,0,0,0-5.48,2.35A9.42,9.42,0,0,0,376.23,322.57Z" transform="translate(-52.95 -251.9)"/><path class="cls-1" d="M403.87,332.33l6.68-3.45a4.17,4.17,0,0,0,1.8,2.75,7.31,7.31,0,0,0,7,.23,2.43,2.43,0,0,0,1.22-2.15q0-2.17-4.33-3.63-1.34-.46-2.14-.76-5.28-2-7.31-4a6.73,6.73,0,0,1-2-5,8.62,8.62,0,0,1,3.45-7.11,16.25,16.25,0,0,1,16.06-1.1,9.69,9.69,0,0,1,4.29,4.58l-6.38,3.17a4.6,4.6,0,0,0-1.8-2.55,5.58,5.58,0,0,0-3.2-.87,5.51,5.51,0,0,0-3.11.79,2.4,2.4,0,0,0-1.19,2.07q0,2.23,5.92,4.15l1.07.34q4.91,1.62,7,3.77a7.57,7.57,0,0,1,2.07,5.48,8.43,8.43,0,0,1-3.45,7.08q-3.45,2.62-9.31,2.62a16.82,16.82,0,0,1-7.92-1.72A8.7,8.7,0,0,1,403.87,332.33Z" transform="translate(-52.95 -251.9)"/><path class="cls-1" d="M465.29,337.58h-8.42l.12-4.3a11.38,11.38,0,0,1-4.26,4.16,12.72,12.72,0,0,1-6.06,1.33,11.82,11.82,0,0,1-9.6-4.42q-3.65-4.42-3.65-11.69,0-7.57,3.59-11.79t10-4.23a11.23,11.23,0,0,1,5.84,1.5,12,12,0,0,1,4.23,4.45v-4.94h8.24Zm-7.93-15a9.43,9.43,0,0,0-2-6.38,6.87,6.87,0,0,0-5.48-2.35,7,7,0,0,0-5.57,2.33,9.41,9.41,0,0,0-2,6.39,9.21,9.21,0,0,0,2,6.32,8,8,0,0,0,11.12,0A9.26,9.26,0,0,0,457.36,322.57Z" transform="translate(-52.95 -251.9)"/><path class="cls-1" d="M473.81,337.58V290.29h8.66v47.29Z" transform="translate(-52.95 -251.9)"/><path class="cls-1" d="M521.28,337.58h-8.42l.12-4.3a11.38,11.38,0,0,1-4.26,4.16,12.72,12.72,0,0,1-6.06,1.33,11.82,11.82,0,0,1-9.6-4.42q-3.65-4.42-3.65-11.69,0-7.57,3.59-11.79t10-4.23a11.23,11.23,0,0,1,5.84,1.5,12,12,0,0,1,4.23,4.45v-4.94h8.24Zm-7.93-15a9.43,9.43,0,0,0-2-6.38,6.87,6.87,0,0,0-5.48-2.35,7,7,0,0,0-5.57,2.33,9.41,9.41,0,0,0-2,6.39,9.21,9.21,0,0,0,2,6.32,8,8,0,0,0,11.12,0A9.26,9.26,0,0,0,513.35,322.57Z" transform="translate(-52.95 -251.9)"/><path class="cls-1" d="M549.72,337.58V314.45h-4.18v-6.8h4.18V297.7h8.7v9.95h4.18v6.8h-4.18v23.13Z" transform="translate(-52.95 -251.9)"/><path class="cls-1" d="M597.19,324.77H574.71a7.82,7.82,0,0,0,2.35,4.84,7.29,7.29,0,0,0,5,1.6,8.63,8.63,0,0,0,4.1-.92,7.6,7.6,0,0,0,2.88-2.78l7,3.51a16.18,16.18,0,0,1-5.92,5.84,17,17,0,0,1-8.27,1.91q-7.26,0-11.5-4.33t-4.24-11.66a15.9,15.9,0,0,1,4.44-11.59,15.2,15.2,0,0,1,11.37-4.55q7.14,0,11.29,4.26t4.15,11.61c0,.26,0,.55,0,.87S597.26,324.16,597.19,324.77Zm-8.6-5.25a6.49,6.49,0,0,0-2.06-4.29,6.88,6.88,0,0,0-4.62-1.45,7.13,7.13,0,0,0-4.68,1.45,6.82,6.82,0,0,0-2.24,4.29Z" transform="translate(-52.95 -251.9)"/><path class="cls-1" d="M603.79,290.29h8.7v30.6l11.11-13.24H634L622,320.89l13.24,16.69H624.47l-12-15.87v15.87h-8.7Z" transform="translate(-52.95 -251.9)"/><path class="cls-1" d="M639.09,337.58V307.65h8.51v4.7a15.87,15.87,0,0,1,5-4.32,12.92,12.92,0,0,1,6-1.39,13.05,13.05,0,0,1,5.84,1.17,8.7,8.7,0,0,1,3.74,3.58,9.63,9.63,0,0,1,1,2.82,30,30,0,0,1,.29,4.93v18.43h-8.7v-14.8q0-5.52-1.28-7.29t-4.39-1.77a7.36,7.36,0,0,0-3.31.75,6.86,6.86,0,0,0-2.52,2.12,6.93,6.93,0,0,0-1.14,2.44,18.24,18.24,0,0,0-.35,4.18v14.37Z" transform="translate(-52.95 -251.9)"/><path class="cls-1" d="M709.2,322.72a15.33,15.33,0,0,1-4.71,11.47,18,18,0,0,1-24,0,16.24,16.24,0,0,1,0-22.94,18,18,0,0,1,24-.06A15.36,15.36,0,0,1,709.2,322.72Zm-8.85-.06a8,8,0,0,0-2.14-5.84,7.66,7.66,0,0,0-5.74-2.18,7.58,7.58,0,0,0-5.71,2.17,9.2,9.2,0,0,0,0,11.72,7.53,7.53,0,0,0,5.71,2.2,7.64,7.64,0,0,0,5.72-2.2A8,8,0,0,0,700.35,322.66Z" transform="translate(-52.95 -251.9)"/><path class="cls-1" d="M716.1,337.58V290.29h8.66v47.29Z" transform="translate(-52.95 -251.9)"/><path class="cls-1" d="M765.07,322.72a15.33,15.33,0,0,1-4.71,11.47,18,18,0,0,1-24,0,16.24,16.24,0,0,1,0-22.94,18,18,0,0,1,24-.06A15.37,15.37,0,0,1,765.07,322.72Zm-8.85-.06a8,8,0,0,0-2.13-5.84,7.67,7.67,0,0,0-5.74-2.18,7.59,7.59,0,0,0-5.71,2.17,9.2,9.2,0,0,0,0,11.72,7.54,7.54,0,0,0,5.71,2.2,7.65,7.65,0,0,0,5.72-2.2A8,8,0,0,0,756.22,322.66Z" transform="translate(-52.95 -251.9)"/><path class="cls-1" d="M801.56,337.09a26.75,26.75,0,0,1-.56,6.65,7.84,7.84,0,0,1-1.94,3.33,11.66,11.66,0,0,1-5,3.11,23.85,23.85,0,0,1-7.41,1q-7.29,0-11.08-2.32a8.47,8.47,0,0,1-4.12-7H781a3.28,3.28,0,0,0,1.59,2.56,8,8,0,0,0,4.06.82q3.54,0,5.11-1.83t1.57-6.1V333a11.49,11.49,0,0,1-4.2,4.12,11.93,11.93,0,0,1-5.81,1.34,12.31,12.31,0,0,1-9.86-4.32q-3.69-4.32-3.69-11.64t3.6-11.66q3.6-4.21,9.95-4.21a11.17,11.17,0,0,1,5.81,1.51,12.11,12.11,0,0,1,4.26,4.44v-4.94h8.18Zm-7.87-14.52a9.14,9.14,0,0,0-2-6.25,6.94,6.94,0,0,0-5.49-2.29,7.07,7.07,0,0,0-5.58,2.27,9.13,9.13,0,0,0-2,6.27,9,9,0,0,0,2,6.22,8.06,8.06,0,0,0,11.12,0A9,9,0,0,0,793.69,322.57Z" transform="translate(-52.95 -251.9)"/><path class="cls-1" d="M810.38,326.54v-7.69h17.09v7.69Z" transform="translate(-52.95 -251.9)"/><path class="cls-1" d="M313,397.71a15.33,15.33,0,0,1-4.71,11.47,18,18,0,0,1-24,0,16.24,16.24,0,0,1,0-22.94,18,18,0,0,1,24-.06A15.36,15.36,0,0,1,313,397.71Zm-8.85-.06A8,8,0,0,0,302,391.8a8.61,8.61,0,0,0-11.44,0,9.2,9.2,0,0,0,0,11.72,7.53,7.53,0,0,0,5.71,2.2,7.65,7.65,0,0,0,5.72-2.2A8,8,0,0,0,304.13,397.65Z" transform="translate(-52.95 -251.9)"/><path class="cls-1" d="M342.54,411.68a13.9,13.9,0,0,1-3.72,1.57,17.08,17.08,0,0,1-4.27.5,15.52,15.52,0,0,1-11.53-4.5,15.91,15.91,0,0,1-4.45-11.7A15.46,15.46,0,0,1,323,386.07a15.81,15.81,0,0,1,11.62-4.44,18.18,18.18,0,0,1,4.27.46,13.74,13.74,0,0,1,3.6,1.43l-.06,8.73a9.69,9.69,0,0,0-7-2.93,7.83,7.83,0,0,0-5.86,2.24,8.25,8.25,0,0,0,6.1,14.2,8.74,8.74,0,0,0,3.74-.76,8.94,8.94,0,0,0,3-2.38Z" transform="translate(-52.95 -251.9)"/><path class="cls-1" d="M350,412.57V365.27h8.51v16.81q0,1.4-.09,2.79t-.27,2.7a18.62,18.62,0,0,1,5.39-4.55,12.87,12.87,0,0,1,6-1.4,13.12,13.12,0,0,1,5.87,1.19,8.43,8.43,0,0,1,3.71,3.57,9.63,9.63,0,0,1,1,2.82,29.94,29.94,0,0,1,.29,4.93v18.43h-8.7v-14.8q0-5.52-1.28-7.29t-4.39-1.77a7.36,7.36,0,0,0-3.31.75,6.86,6.86,0,0,0-2.52,2.12,6.93,6.93,0,0,0-1.14,2.44,18.28,18.28,0,0,0-.35,4.18v14.37Z" transform="translate(-52.95 -251.9)"/><path class="cls-1" d="M409.73,412.57V382.63h8.51v4.7a15.91,15.91,0,0,1,5-4.32,12.92,12.92,0,0,1,6-1.39,13.05,13.05,0,0,1,5.84,1.17,8.7,8.7,0,0,1,3.74,3.59,9.63,9.63,0,0,1,1,2.82,30,30,0,0,1,.29,4.93v18.43h-8.7v-14.8q0-5.52-1.28-7.29t-4.39-1.77a7.36,7.36,0,0,0-3.31.75,6.86,6.86,0,0,0-2.52,2.12,6.93,6.93,0,0,0-1.14,2.44,18.32,18.32,0,0,0-.35,4.18v14.37Z" transform="translate(-52.95 -251.9)"/><path class="cls-1" d="M479.29,412.57h-8.42l.12-4.3a11.38,11.38,0,0,1-4.26,4.16,12.72,12.72,0,0,1-6.06,1.33,11.82,11.82,0,0,1-9.6-4.42q-3.65-4.42-3.65-11.69,0-7.57,3.59-11.79t10-4.23a11.23,11.23,0,0,1,5.84,1.5,12,12,0,0,1,4.23,4.45v-4.94h8.24Zm-7.93-15a9.43,9.43,0,0,0-2-6.38,6.87,6.87,0,0,0-5.48-2.35,7,7,0,0,0-5.57,2.34,9.41,9.41,0,0,0-2,6.39,9.21,9.21,0,0,0,2,6.32,8,8,0,0,0,11.12,0A9.26,9.26,0,0,0,471.35,397.55Z" transform="translate(-52.95 -251.9)"/><path class="cls-1" d="M489.47,412.57V389.44h-4.18v-6.8h4.18v-9.95h8.7v9.95h4.18v6.8h-4.18v23.13Z" transform="translate(-52.95 -251.9)"/><path class="cls-1" d="M517.16,382.63v15.74q0,4,1.54,5.67t5,1.71q3.45,0,5-1.72t1.56-5.66V382.63H539v15.74q0,7.9-3.69,11.64t-11.44,3.74q-7.9,0-11.61-3.72t-3.71-11.66V382.63Z" transform="translate(-52.95 -251.9)"/><path class="cls-1" d="M556.67,390.32a13.76,13.76,0,0,1,3.77-6.53,8.87,8.87,0,0,1,6.09-2.17,19.54,19.54,0,0,1,2.71.3l.55.09-1.31,9.34a10.93,10.93,0,0,0-2-.6,10.68,10.68,0,0,0-2.09-.2q-4,0-5.71,2T557,399.39v13.18h-8.7V382.63h8.57Z" transform="translate(-52.95 -251.9)"/><path class="cls-1" d="M582,412.57l-12.17-29.93h10L585,398.2q.61,1.89,1,3.51a25.73,25.73,0,0,1,.52,3.17q.37-2.35.73-4a23.91,23.91,0,0,1,.85-3l5.1-15.26H603l-12.29,29.93Z" transform="translate(-52.95 -251.9)"/><path class="cls-1" d="M637,399.75H614.47a7.82,7.82,0,0,0,2.35,4.84,7.29,7.29,0,0,0,5,1.6,8.63,8.63,0,0,0,4.1-.92,7.6,7.6,0,0,0,2.88-2.78l7,3.51a16.18,16.18,0,0,1-5.92,5.84,17,17,0,0,1-8.27,1.91q-7.26,0-11.5-4.33t-4.24-11.66a15.9,15.9,0,0,1,4.44-11.59,15.2,15.2,0,0,1,11.37-4.55q7.14,0,11.29,4.26t4.15,11.61c0,.26,0,.55,0,.87S637,399.14,637,399.75Zm-8.6-5.25a6.49,6.49,0,0,0-2.06-4.29,6.88,6.88,0,0,0-4.62-1.45,7.13,7.13,0,0,0-4.68,1.45,6.82,6.82,0,0,0-2.24,4.29Z" transform="translate(-52.95 -251.9)"/><path class="cls-1" d="M645.55,412.57V389.44h-4.18v-6.8h4.18v-9.95h8.7v9.95h4.18v6.8h-4.18v23.13Z" transform="translate(-52.95 -251.9)"/><path class="cls-1" d="M694.73,412.57h-8.42l.12-4.3a11.38,11.38,0,0,1-4.26,4.16,12.72,12.72,0,0,1-6.06,1.33,11.82,11.82,0,0,1-9.6-4.42q-3.65-4.42-3.65-11.69,0-7.57,3.59-11.79t10-4.23a11.23,11.23,0,0,1,5.84,1.5,12,12,0,0,1,4.23,4.45v-4.94h8.24Zm-7.93-15a9.43,9.43,0,0,0-2-6.38,6.87,6.87,0,0,0-5.48-2.35,7,7,0,0,0-5.57,2.34,9.41,9.41,0,0,0-2,6.39,9.21,9.21,0,0,0,2,6.32,8,8,0,0,0,11.12,0A9.26,9.26,0,0,0,686.79,397.55Z" transform="translate(-52.95 -251.9)"/><path class="cls-1" d="M712.23,390.32a13.76,13.76,0,0,1,3.77-6.53,8.87,8.87,0,0,1,6.09-2.17,19.54,19.54,0,0,1,2.71.3l.55.09L724,391.36a10.93,10.93,0,0,0-2-.6,10.68,10.68,0,0,0-2.09-.2q-4,0-5.71,2t-1.74,6.79v13.18h-8.7V382.63h8.57Z" transform="translate(-52.95 -251.9)"/><path class="cls-1" d="M730.22,365.27h8.7v30.6L750,382.63h10.43l-12.05,13.24,13.24,16.69H750.91l-12-15.87v15.87h-8.7Z" transform="translate(-52.95 -251.9)"/><path class="cls-1" d="M796.46,412.57H788l.12-4.3a11.4,11.4,0,0,1-4.26,4.16,12.73,12.73,0,0,1-6.06,1.33,11.82,11.82,0,0,1-9.6-4.42q-3.65-4.42-3.65-11.69,0-7.57,3.58-11.79t10-4.23a11.23,11.23,0,0,1,5.84,1.5,12,12,0,0,1,4.23,4.45v-4.94h8.24Zm-23.16-41a8.08,8.08,0,1,1,2.37,5.74A7.83,7.83,0,0,1,773.3,371.6Zm15.22,26a9.42,9.42,0,0,0-2-6.38,6.87,6.87,0,0,0-5.48-2.35,7,7,0,0,0-5.57,2.34,9.42,9.42,0,0,0-2,6.39,9.2,9.2,0,0,0,2,6.32,8,8,0,0,0,11.12,0A9.26,9.26,0,0,0,788.52,397.55Zm-10.86-26a3.66,3.66,0,0,0,1.08,2.67,3.82,3.82,0,1,0-1.08-2.67Z" transform="translate(-52.95 -251.9)"/><path class="cls-1" d="M814,390.32a13.76,13.76,0,0,1,3.77-6.53,8.87,8.87,0,0,1,6.09-2.17,19.54,19.54,0,0,1,2.71.3l.55.09-1.31,9.34a10.93,10.93,0,0,0-2-.6,10.68,10.68,0,0,0-2.09-.2q-4,0-5.71,2t-1.74,6.79v13.18h-8.7V382.63h8.57Z" transform="translate(-52.95 -251.9)"/></svg>