<?xml version="1.0" standalone="no"?>
<!DOCTYPE svg PUBLIC "-//W3C//DTD SVG 20010904//EN"
 "http://www.w3.org/TR/2001/REC-SVG-20010904/DTD/svg10.dtd">
<svg version="1.0" xmlns="http://www.w3.org/2000/svg"
 width="700.000000pt" height="700.000000pt" viewBox="0 0 700.000000 700.000000"
 preserveAspectRatio="xMidYMid meet">
<metadata>
Created by potrace 1.14, written by Peter Selinger 2001-2017
</metadata>
<g transform="translate(0.000000,700.000000) scale(0.100000,-0.100000)"
fill="#000000" stroke="none">
<path d="M3278 6995 c-1 -1 -42 -5 -89 -9 -47 -4 -95 -8 -105 -10 -10 -2 -41
-7 -69 -10 -119 -16 -190 -29 -365 -72 -99 -24 -343 -99 -365 -112 -5 -4 -16
-7 -24 -9 -7 -1 -18 -6 -23 -11 -6 -6 10 -6 42 -1 28 4 96 11 153 15 56 3 120
8 142 10 73 6 559 6 660 0 161 -10 247 -17 290 -22 41 -5 69 -8 165 -19 82
-10 272 -41 355 -59 11 -3 52 -11 90 -20 191 -41 411 -109 575 -179 693 -294
842 -716 380 -1072 -242 -186 -653 -340 -1145 -429 -145 -26 -258 -43 -335
-50 -110 -11 -186 -19 -202 -21 -34 -7 -359 -18 -503 -18 -138 0 -398 10 -470
17 -16 2 -66 6 -110 10 -103 9 -164 16 -195 21 -14 3 -45 7 -70 10 -44 5 -189
30 -240 40 -14 3 -41 8 -60 11 -72 12 -339 84 -440 119 -58 20 -109 37 -115
38 -27 6 -140 56 -230 101 -107 53 -221 125 -296 188 -26 21 -49 38 -53 38
-18 0 -208 -322 -285 -485 -140 -295 -253 -653 -295 -940 -2 -16 -8 -50 -12
-75 -21 -132 -29 -273 -29 -495 1 -194 7 -329 20 -406 2 -13 6 -46 9 -74 9
-78 22 -152 51 -285 21 -96 91 -339 114 -395 5 -11 26 -65 47 -120 83 -218
199 -440 350 -665 186 -279 386 -499 690 -760 36 -32 204 -155 264 -195 25
-17 47 -32 50 -35 3 -3 17 -12 32 -20 14 -8 77 -44 140 -80 266 -153 574 -279
843 -346 128 -31 163 -39 270 -59 80 -15 117 -20 210 -31 28 -3 66 -7 85 -10
19 -2 115 -7 213 -10 l177 -7 0 25 c0 13 -4 49 -10 79 -11 59 -16 93 -25 184
-4 33 -8 74 -10 90 -25 186 -25 701 0 941 9 86 26 228 31 254 2 14 7 41 10 60
11 71 45 246 55 285 6 22 13 51 15 65 3 14 9 39 15 56 5 17 11 40 13 50 16 79
100 334 163 489 124 307 353 698 511 873 16 18 46 52 65 75 19 23 70 77 113
119 315 308 633 479 1024 550 75 13 329 18 415 7 324 -40 626 -170 900 -387
39 -31 72 -58 75 -61 3 -4 20 -19 38 -36 l33 -30 -6 85 c-4 47 -8 96 -11 110
-2 14 -6 50 -9 81 -3 31 -7 64 -9 75 -2 10 -11 60 -21 109 -31 172 -114 470
-160 580 -7 17 -25 62 -40 100 -226 562 -634 1090 -1134 1469 -106 80 -260
183 -351 233 -30 17 -82 46 -115 65 -276 156 -739 311 -1085 364 -25 3 -52 8
-60 9 -8 2 -44 6 -80 10 -36 4 -81 10 -100 12 -41 5 -537 13 -542 8z"/>
</g>
</svg>
