<?xml version="1.0" encoding="utf-8"?>
<!-- Generator: Adobe Illustrator 25.4.1, SVG Export Plug-In . SVG Version: 6.00 Build 0)  -->
<svg version="1.1" id="Layer_1" xmlns="http://www.w3.org/2000/svg" xmlns:xlink="http://www.w3.org/1999/xlink" x="0px" y="0px"
	 viewBox="0 0 1000 256.3" style="enable-background:new 0 0 1000 256.3;" xml:space="preserve">
<style type="text/css">
	.st0{clip-path:url(#SVGID_00000102517554260496241880000012365312573866011047_);}
</style>
<g>
	<g>
		<defs>
			<rect id="SVGID_1_" x="0.2" y="0.1" width="999.8" height="256.1"/>
		</defs>
		<clipPath id="SVGID_00000079460262968495062480000006510085049637131663_">
			<use xlink:href="#SVGID_1_"  style="overflow:visible;"/>
		</clipPath>
		<path style="clip-path:url(#SVGID_00000079460262968495062480000006510085049637131663_);" d="M128,225.2
			c0-67.9,37.3-123,83.3-123c16.4,0,31.7,7,44.6,19.1C252.4,53.8,196.5,0.1,128,0.1c-16.6,0-32.5,3.2-47.1,8.9
			c8-0.9,16.5-1.4,25.3-1.4c49.5,0,89.5,15.6,89.5,34.7c0,19.2-40.1,34.7-89.5,34.7c-37.9,0-70.3-9.1-83.4-22
			C8.5,75.8,0,101,0,128.1c0,70.7,57.3,128,128,128c0.9,0,1.8,0,2.7,0C129,246.3,128,235.9,128,225.2L128,225.2z"/>
	</g>
	<path d="M345.7,53v35.9c0,7.8-2.1,13.7-6.2,17.5c-4.1,3.9-10.3,5.8-18.6,5.8c-8.4,0-14.7-1.9-18.8-5.8c-4.1-3.9-6.2-9.7-6.2-17.5
		V53h12.3v34c0,4.8,1.1,8.3,3.2,10.7c2.1,2.4,5.2,3.6,9.4,3.6c4.2,0,7.4-1.2,9.5-3.6c2.2-2.4,3.2-6,3.2-10.7V53H345.7L345.7,53z"/>
	<path d="M367.7,91.3c0,3.5,0.9,6.2,2.6,8.2c1.7,1.9,4.1,2.9,7.2,2.9c3.1,0,5.5-1,7.2-2.9c1.7-1.9,2.6-4.7,2.6-8.2
		c0-3.5-0.9-6.2-2.6-8.3c-1.7-2-4.2-3-7.2-3c-3,0-5.3,1-7.1,3C368.6,85.1,367.7,87.9,367.7,91.3L367.7,91.3z M357.4,128.3V72.1h10.8
		v6.4c1.5-2.6,3.3-4.5,5.4-5.8c2.1-1.3,4.6-1.9,7.5-1.9c5.5,0,9.8,1.8,12.9,5.5c3.1,3.6,4.6,8.7,4.6,15.2c0,6.3-1.6,11.3-4.7,15.1
		c-3.1,3.8-7.2,5.7-12.3,5.7c-3.1,0-5.7-0.6-7.8-1.7c-2.1-1.1-4-2.9-5.5-5.4c0.1,1,0.2,2,0.3,3.2c0.1,1.1,0.1,2.4,0.1,3.9v16H357.4
		L357.4,128.3z"/>
	<path d="M417.4,91.3c0,3.5,0.9,6.2,2.6,8.2c1.7,1.9,4.1,2.9,7.2,2.9s5.5-1,7.2-2.9c1.7-1.9,2.6-4.7,2.6-8.2c0-3.5-0.9-6.2-2.6-8.3
		c-1.7-2-4.2-3-7.2-3c-3,0-5.3,1-7.1,3C418.3,85.1,417.4,87.9,417.4,91.3L417.4,91.3z M407.2,128.3V72.1h10.8v6.4
		c1.5-2.6,3.3-4.5,5.4-5.8c2.1-1.3,4.6-1.9,7.5-1.9c5.5,0,9.8,1.8,12.9,5.5c3.1,3.6,4.6,8.7,4.6,15.2c0,6.3-1.6,11.3-4.7,15.1
		c-3.1,3.8-7.2,5.7-12.3,5.7c-3.1,0-5.7-0.6-7.8-1.7c-2.1-1.1-4-2.9-5.5-5.4c0.1,1,0.2,2,0.3,3.2c0.1,1.1,0.1,2.4,0.1,3.9v16H407.2
		L407.2,128.3z"/>
	<path d="M453.1,103.9l8.6-4.5c0.3,1.5,1.1,2.7,2.3,3.5c1.3,0.9,2.8,1.3,4.7,1.3c1.8,0,3.3-0.3,4.3-1c1-0.7,1.6-1.6,1.6-2.8
		c0-1.9-1.9-3.4-5.6-4.7c-1.2-0.4-2.1-0.7-2.8-1c-4.5-1.7-7.7-3.4-9.4-5.2c-1.7-1.7-2.6-3.9-2.6-6.4c0-3.8,1.5-6.8,4.5-9.2
		c3-2.3,6.9-3.5,11.7-3.5c3.5,0,6.5,0.7,9,2.1c2.5,1.4,4.4,3.4,5.5,5.9l-8.2,4.1c-0.4-1.4-1.2-2.5-2.3-3.3c-1.1-0.7-2.5-1.1-4.1-1.1
		c-1.7,0-3,0.3-4,1c-1,0.7-1.5,1.6-1.5,2.7c0,1.9,2.5,3.7,7.6,5.4c0.6,0.2,1.1,0.3,1.4,0.4c4.2,1.4,7.2,3,9,4.9
		c1.8,1.9,2.7,4.2,2.7,7.1c0,3.8-1.5,6.9-4.5,9.1c-3,2.3-7,3.4-12,3.4c-4,0-7.4-0.7-10.2-2.2C455.9,108.5,454,106.5,453.1,103.9
		L453.1,103.9z"/>
	<path d="M522.2,91.3c0-3.5-0.9-6.2-2.6-8.2c-1.7-2-4.1-3-7.1-3c-3,0-5.4,1-7.2,3c-1.7,2-2.6,4.8-2.6,8.3c0,3.5,0.9,6.2,2.6,8.2
		c1.7,1.9,4.1,2.9,7.2,2.9c3.1,0,5.5-1,7.2-2.9C521.3,97.5,522.2,94.8,522.2,91.3L522.2,91.3z M532.4,110.7h-10.9l0.2-5.6
		c-1.5,2.4-3.4,4.2-5.5,5.4c-2.1,1.1-4.7,1.7-7.8,1.7c-5.1,0-9.3-1.9-12.4-5.7c-3.1-3.8-4.7-8.8-4.7-15.1c0-6.5,1.5-11.6,4.6-15.2
		c3.1-3.6,7.4-5.5,12.9-5.5c2.9,0,5.4,0.6,7.5,1.9c2.2,1.3,4,3.2,5.5,5.8v-6.4h10.6V110.7L532.4,110.7z"/>
	<polygon points="543.4,110.7 543.4,49.7 554.6,49.7 554.6,110.7 543.4,110.7 	"/>
	<path d="M594.4,91.3c0-3.5-0.9-6.2-2.6-8.2c-1.7-2-4.1-3-7.1-3c-3,0-5.4,1-7.2,3c-1.7,2-2.6,4.8-2.6,8.3c0,3.5,0.9,6.2,2.6,8.2
		c1.7,1.9,4.1,2.9,7.2,2.9c3.1,0,5.5-1,7.2-2.9C593.6,97.5,594.4,94.8,594.4,91.3L594.4,91.3z M604.7,110.7h-10.9l0.2-5.6
		c-1.5,2.4-3.4,4.2-5.5,5.4c-2.1,1.1-4.7,1.7-7.8,1.7c-5.1,0-9.3-1.9-12.4-5.7c-3.1-3.8-4.7-8.8-4.7-15.1c0-6.5,1.5-11.6,4.6-15.2
		c3.1-3.6,7.4-5.5,12.9-5.5c2.9,0,5.4,0.6,7.5,1.9c2.2,1.3,4,3.2,5.5,5.8v-6.4h10.6V110.7L604.7,110.7z"/>
	<polygon points="641.4,110.7 641.4,80.9 636,80.9 636,72.1 641.4,72.1 641.4,59.2 652.6,59.2 652.6,72.1 658,72.1 658,80.9 
		652.6,80.9 652.6,110.7 641.4,110.7 	"/>
	<path d="M691.6,87.4c-0.3-2.4-1.2-4.3-2.7-5.5c-1.5-1.2-3.4-1.9-6-1.9c-2.5,0-4.5,0.6-6,1.9c-1.5,1.2-2.5,3.1-2.9,5.5H691.6
		L691.6,87.4z M702.7,94.2h-29c0.4,2.8,1.5,4.9,3,6.2c1.6,1.4,3.7,2.1,6.4,2.1c2.1,0,3.8-0.4,5.3-1.2c1.5-0.8,2.7-2,3.7-3.6l9.1,4.5
		c-2.1,3.4-4.6,5.9-7.6,7.5c-3,1.6-6.6,2.5-10.7,2.5c-6.3,0-11.2-1.9-14.9-5.6c-3.7-3.7-5.5-8.7-5.5-15c0-6.1,1.9-11.1,5.7-15
		c3.8-3.9,8.7-5.9,14.7-5.9c6.1,0,11,1.8,14.6,5.5c3.6,3.7,5.4,8.7,5.4,15c0,0.3,0,0.7,0,1.1C702.8,92.8,702.8,93.4,702.7,94.2
		L702.7,94.2z"/>
	<polygon points="711.2,49.7 722.4,49.7 722.4,89.2 736.8,72.1 750.2,72.1 734.7,89.2 751.8,110.7 737.9,110.7 722.4,90.2 
		722.4,110.7 711.2,110.7 711.2,49.7 	"/>
	<path d="M756.8,110.7V72.1h11v6.1c2-2.5,4.2-4.4,6.5-5.6c2.3-1.2,4.9-1.8,7.7-1.8c3,0,5.5,0.5,7.5,1.5c2,1,3.6,2.6,4.8,4.6
		c0.6,1.1,1,2.3,1.2,3.6c0.2,1.4,0.4,3.5,0.4,6.4v1.2v22.6h-11.2V91.6c0-4.8-0.5-7.9-1.7-9.4c-1.1-1.5-3-2.3-5.7-2.3
		c-1.6,0-3,0.3-4.3,1c-1.3,0.6-2.4,1.6-3.2,2.7c-0.7,0.9-1.2,2-1.5,3.2c-0.3,1.2-0.5,3-0.5,5.4v1.5v17H756.8L756.8,110.7z"/>
	<path d="M835.9,91.5c0-3.2-0.9-5.7-2.8-7.5c-1.8-1.9-4.3-2.8-7.4-2.8c-3.1,0-5.6,0.9-7.4,2.8c-1.8,1.9-2.7,4.4-2.7,7.6
		c0,3.2,0.9,5.7,2.7,7.6c1.8,1.9,4.3,2.8,7.4,2.8c3.1,0,5.5-0.9,7.4-2.8C835,97.1,835.9,94.6,835.9,91.5L835.9,91.5z M847.3,91.5
		c0,5.9-2,10.9-6.1,14.8c-4.1,3.9-9.2,5.9-15.4,5.9c-6.3,0-11.4-2-15.5-5.9c-4.1-3.9-6.1-8.9-6.1-14.8c0-5.9,2-10.8,6.1-14.8
		c4.1-4,9.3-5.9,15.5-5.9c6.3,0,11.4,2,15.4,5.9C845.3,80.6,847.3,85.5,847.3,91.5L847.3,91.5z"/>
	<polygon points="856.2,110.7 856.2,49.7 867.4,49.7 867.4,110.7 856.2,110.7 	"/>
	<path d="M908,91.5c0-3.2-0.9-5.7-2.8-7.5c-1.8-1.9-4.3-2.8-7.4-2.8c-3.1,0-5.6,0.9-7.4,2.8c-1.8,1.9-2.7,4.4-2.7,7.6
		c0,3.2,0.9,5.7,2.7,7.6c1.8,1.9,4.3,2.8,7.4,2.8c3.1,0,5.5-0.9,7.4-2.8C907.1,97.1,908,94.6,908,91.5L908,91.5z M919.4,91.5
		c0,5.9-2,10.9-6.1,14.8c-4.1,3.9-9.2,5.9-15.4,5.9c-6.3,0-11.5-2-15.5-5.9c-4.1-3.9-6.1-8.9-6.1-14.8c0-5.9,2-10.8,6.1-14.8
		c4.1-4,9.3-5.9,15.5-5.9c6.2,0,11.4,2,15.4,5.9C917.4,80.6,919.4,85.5,919.4,91.5L919.4,91.5z"/>
	<path d="M956.4,91.3c0-3.4-0.9-6.1-2.6-8.1c-1.7-2-4.1-3-7.1-3c-3.1,0-5.5,1-7.2,2.9c-1.7,2-2.6,4.7-2.6,8.1c0,3.4,0.9,6.1,2.6,8
		c1.7,1.9,4.1,2.9,7.2,2.9c3.1,0,5.5-1,7.2-2.9C955.5,97.5,956.4,94.8,956.4,91.3L956.4,91.3z M966.6,110.1c0,4.1-0.2,6.9-0.7,8.6
		c-0.5,1.7-1.3,3.1-2.5,4.3c-1.7,1.8-3.8,3.2-6.5,4c-2.6,0.9-5.8,1.3-9.6,1.3c-6.3,0-11-1-14.3-3c-3.3-2-5-5-5.3-9.1H940
		c0.2,1.5,0.9,2.6,2,3.3c1.2,0.7,2.9,1.1,5.2,1.1c3,0,5.2-0.8,6.6-2.4c1.4-1.6,2-4.2,2-7.9v-5.5c-1.5,2.4-3.3,4.2-5.4,5.3
		c-2.1,1.2-4.6,1.7-7.5,1.7c-5.3,0-9.5-1.9-12.7-5.6c-3.2-3.7-4.8-8.7-4.8-15c0-6.4,1.6-11.4,4.6-15c3.1-3.6,7.4-5.4,12.8-5.4
		c2.8,0,5.3,0.7,7.5,2c2.2,1.3,4,3.2,5.5,5.7v-6.4h10.6V110.1L966.6,110.1z"/>
	<polygon points="977.9,96.5 977.9,86.5 1000,86.5 1000,96.5 977.9,96.5 	"/>
	<path d="M324.3,188.3c0-3.2-0.9-5.7-2.8-7.5c-1.8-1.9-4.3-2.8-7.4-2.8c-3.1,0-5.6,0.9-7.4,2.8c-1.8,1.9-2.7,4.4-2.7,7.6
		c0,3.2,0.9,5.7,2.7,7.6c1.8,1.9,4.3,2.8,7.4,2.8c3.1,0,5.5-0.9,7.4-2.8C323.4,193.9,324.3,191.4,324.3,188.3L324.3,188.3z
		 M335.7,188.3c0,5.9-2,10.9-6.1,14.8c-4.1,3.9-9.2,5.9-15.4,5.9c-6.3,0-11.5-2-15.5-5.9c-4.1-3.9-6.1-8.9-6.1-14.8
		c0-5.9,2-10.8,6.1-14.8c4.1-4,9.3-5.9,15.5-5.9c6.3,0,11.4,2,15.4,5.9C333.7,177.4,335.7,182.3,335.7,188.3L335.7,188.3z"/>
	<path d="M373.9,206.4c-1.5,0.9-3.1,1.6-4.8,2c-1.7,0.4-3.5,0.6-5.5,0.6c-6.1,0-11.1-1.9-14.9-5.8c-3.8-3.9-5.8-8.9-5.8-15.1
		c0-6.1,1.9-11,5.8-14.8c3.9-3.8,8.9-5.7,15-5.7c2,0,3.9,0.2,5.5,0.6c1.6,0.4,3.2,1,4.6,1.9l-0.1,11.3c-1.2-1.2-2.5-2.1-4.1-2.8
		c-1.5-0.7-3.2-1-4.9-1c-3.2,0-5.7,1-7.6,2.9c-1.9,1.9-2.8,4.5-2.8,7.7c0,3.3,1,5.8,2.9,7.8c1.9,1.9,4.5,2.9,7.8,2.9
		c1.8,0,3.4-0.3,4.8-1c1.4-0.7,2.7-1.7,3.9-3.1L373.9,206.4L373.9,206.4z"/>
	<path d="M383.6,207.5v-61.1h11v21.7c0,1.2,0,2.4-0.1,3.6c-0.1,1.2-0.2,2.4-0.4,3.5c2.3-2.7,4.6-4.7,7-5.9c2.3-1.2,4.9-1.8,7.8-1.8
		c3,0,5.5,0.5,7.6,1.5c2.1,1,3.7,2.6,4.8,4.6c0.6,1.1,1,2.3,1.2,3.6c0.2,1.4,0.4,3.5,0.4,6.4v1.2v22.6h-11.2v-19.1
		c0-4.8-0.6-7.9-1.7-9.4c-1.1-1.5-3-2.3-5.7-2.3c-1.6,0-3,0.3-4.3,1c-1.3,0.6-2.4,1.6-3.2,2.7c-0.7,0.9-1.2,2-1.5,3.2
		c-0.3,1.2-0.5,3-0.5,5.4v1.5v17H383.6L383.6,207.5z"/>
	<path d="M460.7,207.5v-38.6h11v6.1c2-2.5,4.2-4.4,6.5-5.6c2.3-1.2,4.9-1.8,7.7-1.8c3,0,5.5,0.5,7.5,1.5c2,1,3.6,2.6,4.8,4.6
		c0.6,1.1,1,2.3,1.2,3.6c0.3,1.4,0.4,3.5,0.4,6.4v1.2v22.6h-11.2v-19.1c0-4.8-0.6-7.9-1.7-9.4c-1.1-1.5-3-2.3-5.7-2.3
		c-1.5,0-3,0.3-4.3,1c-1.3,0.6-2.4,1.6-3.3,2.7c-0.7,0.9-1.2,2-1.5,3.2c-0.3,1.2-0.5,3-0.5,5.4v1.5v17H460.7L460.7,207.5z"/>
	<path d="M540.2,188.1c0-3.5-0.9-6.2-2.6-8.2c-1.7-2-4.1-3-7.1-3c-3,0-5.4,1-7.2,3c-1.7,2-2.6,4.8-2.6,8.3c0,3.5,0.9,6.2,2.6,8.2
		c1.7,1.9,4.1,2.9,7.2,2.9c3.1,0,5.5-1,7.2-2.9C539.4,194.4,540.2,191.6,540.2,188.1L540.2,188.1z M550.5,207.5h-10.9l0.2-5.6
		c-1.5,2.4-3.4,4.2-5.5,5.4c-2.1,1.1-4.7,1.7-7.8,1.7c-5.1,0-9.3-1.9-12.4-5.7c-3.1-3.8-4.7-8.8-4.7-15.1c0-6.5,1.5-11.6,4.6-15.2
		c3.1-3.6,7.4-5.5,12.9-5.5c2.9,0,5.4,0.6,7.5,1.9c2.2,1.3,4,3.2,5.5,5.8v-6.4h10.6V207.5L550.5,207.5z"/>
	<polygon points="563.6,207.5 563.6,177.7 558.2,177.7 558.2,168.9 563.6,168.9 563.6,156 574.8,156 574.8,168.9 580.2,168.9 
		580.2,177.7 574.8,177.7 574.8,207.5 563.6,207.5 	"/>
	<path d="M599.4,168.9v20.3c0,3.4,0.7,5.9,2,7.3c1.3,1.5,3.5,2.2,6.5,2.2c3,0,5.1-0.7,6.5-2.2c1.3-1.5,2-3.9,2-7.3v-20.3h11.2v20.3
		c0,6.8-1.6,11.8-4.8,15c-3.2,3.2-8.1,4.8-14.8,4.8c-6.8,0-11.8-1.6-15-4.8c-3.2-3.2-4.8-8.2-4.8-15v-20.3H599.4L599.4,168.9z"/>
	<path d="M650.4,178.8c1.1-3.8,2.8-6.6,4.9-8.4c2.1-1.9,4.7-2.8,7.9-2.8c0.7,0,1.9,0.1,3.5,0.4c0.3,0.1,0.6,0.1,0.7,0.1l-1.7,12.1
		c-0.8-0.3-1.7-0.6-2.5-0.8c-0.9-0.2-1.8-0.3-2.7-0.3c-3.4,0-5.9,0.9-7.4,2.6c-1.5,1.7-2.2,4.7-2.2,8.8v17h-11.2v-38.6h11.1
		L650.4,178.8L650.4,178.8z"/>
	<path d="M683.1,207.5l-15.7-38.6h13l6.5,20.1c0.5,1.6,0.9,3.1,1.3,4.5c0.3,1.4,0.5,2.8,0.7,4.1c0.3-2,0.6-3.7,0.9-5.2
		c0.3-1.4,0.7-2.7,1.1-3.9l6.6-19.7h12.8l-15.9,38.6H683.1L683.1,207.5z"/>
	<path d="M742.9,184.2c-0.3-2.4-1.2-4.3-2.7-5.5c-1.5-1.2-3.4-1.9-6-1.9c-2.5,0-4.5,0.6-6,1.9c-1.5,1.2-2.5,3.1-2.9,5.5H742.9
		L742.9,184.2z M754,191h-29c0.4,2.8,1.5,4.9,3,6.2c1.6,1.4,3.7,2.1,6.4,2.1c2.1,0,3.8-0.4,5.3-1.2c1.5-0.8,2.7-2,3.7-3.6l9.1,4.5
		c-2.1,3.4-4.6,5.9-7.6,7.5c-3,1.6-6.6,2.5-10.7,2.5c-6.3,0-11.2-1.9-14.9-5.6c-3.7-3.7-5.5-8.7-5.5-15c0-6.1,1.9-11.1,5.7-15
		c3.8-3.9,8.7-5.9,14.7-5.9c6.1,0,11,1.8,14.6,5.5c3.6,3.7,5.4,8.7,5.4,15c0,0.3,0,0.7,0,1.1C754.2,189.6,754.1,190.2,754,191
		L754,191z"/>
	<polygon points="765.1,207.5 765.1,177.7 759.7,177.7 759.7,168.9 765.1,168.9 765.1,156 776.4,156 776.4,168.9 781.8,168.9 
		781.8,177.7 776.4,177.7 776.4,207.5 765.1,207.5 	"/>
	<path d="M818.4,188.1c0-3.5-0.9-6.2-2.6-8.2c-1.7-2-4.1-3-7.1-3c-3,0-5.4,1-7.2,3c-1.7,2-2.6,4.8-2.6,8.3c0,3.5,0.9,6.2,2.6,8.2
		c1.7,1.9,4.1,2.9,7.2,2.9c3.1,0,5.5-1,7.2-2.9C817.5,194.4,818.4,191.6,818.4,188.1L818.4,188.1z M828.6,207.5h-10.9l0.2-5.6
		c-1.5,2.4-3.4,4.2-5.5,5.4c-2.1,1.1-4.7,1.7-7.8,1.7c-5.1,0-9.3-1.9-12.4-5.7c-3.1-3.8-4.7-8.8-4.7-15.1c0-6.5,1.5-11.6,4.6-15.2
		c3.1-3.6,7.4-5.5,12.9-5.5c2.9,0,5.4,0.6,7.5,1.9c2.2,1.3,4,3.2,5.5,5.8v-6.4h10.6V207.5L828.6,207.5z"/>
	<path d="M851.2,178.8c1.1-3.8,2.8-6.6,4.9-8.4c2.1-1.9,4.7-2.8,7.9-2.8c0.7,0,1.9,0.1,3.5,0.4c0.3,0.1,0.6,0.1,0.7,0.1l-1.7,12.1
		c-0.8-0.3-1.7-0.6-2.5-0.8c-0.9-0.2-1.8-0.3-2.7-0.3c-3.4,0-5.9,0.9-7.4,2.6c-1.5,1.7-2.2,4.7-2.2,8.8v17h-11.2v-38.6h11.1
		L851.2,178.8L851.2,178.8z"/>
	<polygon points="874.5,146.5 885.7,146.5 885.7,186 900,168.9 913.5,168.9 897.9,186 915,207.5 901.2,207.5 885.7,187 885.7,207.5 
		874.5,207.5 874.5,146.5 	"/>
	<path d="M935.7,154.6c0,1.4,0.5,2.5,1.4,3.4c0.9,0.9,2.1,1.4,3.4,1.4c1.3,0,2.4-0.5,3.4-1.4c1-1,1.4-2.1,1.4-3.4
		c0-1.4-0.5-2.5-1.4-3.4c-0.9-0.9-2.1-1.4-3.4-1.4c-1.4,0-2.5,0.5-3.4,1.4C936.2,152.1,935.7,153.2,935.7,154.6L935.7,154.6z
		 M949.7,188.1c0-3.5-0.9-6.2-2.6-8.2c-1.7-2-4.1-3-7.1-3c-3,0-5.4,1-7.2,3c-1.7,2-2.6,4.8-2.6,8.3c0,3.5,0.9,6.2,2.6,8.2
		c1.7,1.9,4.1,2.9,7.1,2.9c3.1,0,5.5-1,7.2-2.9C948.9,194.4,949.7,191.6,949.7,188.1L949.7,188.1z M930.1,154.6c0-2.9,1-5.4,3.1-7.4
		c2-2,4.5-3.1,7.4-3.1c2.9,0,5.3,1,7.4,3.1c2,2,3.1,4.5,3.1,7.4c0,2.9-1,5.4-3,7.4c-2,2-4.5,3-7.4,3c-2.9,0-5.4-1-7.4-3
		C931.1,160,930.1,157.6,930.1,154.6L930.1,154.6z M960,207.5h-10.9l0.2-5.6c-1.5,2.4-3.4,4.2-5.5,5.4c-2.1,1.1-4.7,1.7-7.8,1.7
		c-5.1,0-9.3-1.9-12.4-5.7c-3.1-3.8-4.7-8.8-4.7-15.1c0-6.5,1.5-11.6,4.6-15.2c3.1-3.6,7.4-5.5,12.9-5.5c2.9,0,5.4,0.6,7.5,1.9
		c2.2,1.3,4,3.2,5.5,5.8v-6.4H960V207.5L960,207.5z"/>
	<path d="M982.6,178.8c1.1-3.8,2.8-6.6,4.9-8.4c2.1-1.9,4.7-2.8,7.9-2.8c0.7,0,1.9,0.1,3.5,0.4c0.3,0.1,0.6,0.1,0.7,0.1l-1.7,12.1
		c-0.8-0.3-1.7-0.6-2.5-0.8c-0.9-0.2-1.8-0.3-2.7-0.3c-3.4,0-5.9,0.9-7.4,2.6c-1.5,1.7-2.2,4.7-2.2,8.8v17h-11.2v-38.6h11.1
		L982.6,178.8L982.6,178.8z"/>
</g>
</svg>
