<?xml version="1.0" encoding="utf-8"?>
<!-- Generator: Adobe Illustrator 25.4.1, SVG Export Plug-In . SVG Version: 6.00 Build 0)  -->
<svg version="1.1" id="Layer_1" xmlns="http://www.w3.org/2000/svg" xmlns:xlink="http://www.w3.org/1999/xlink" x="0px" y="0px"
	 viewBox="0 0 1000 1000" style="enable-background:new 0 0 1000 1000;" xml:space="preserve">
<style type="text/css">
	.st0{fill:#004C98;}
</style>
<path class="st0" d="M500.4,879.1c0-265.3,145.7-480.4,325.4-480.4c64.1,0,123.9,27.4,174.3,74.6C986.1,209.6,767.7,0,500.4,0
	c-65,0-127.1,12.4-184.1,34.9c31.4-3.6,64.6-5.5,99.1-5.5c193.3,0,349.9,60.7,349.9,135.6c0,74.9-156.7,135.6-349.9,135.6
	c-148.1,0-274.7-35.7-325.8-86.1C33.1,295.5,0,393.9,0,500c0,276.1,224,500,500.4,500c3.5,0,6.9-0.1,10.4-0.1
	C504,961.3,500.4,920.8,500.4,879.1z"/>
</svg>
