<?xml version="1.0" encoding="utf-8"?>
<!-- Generator: Adobe Illustrator 25.4.1, SVG Export Plug-In . SVG Version: 6.00 Build 0)  -->
<svg version="1.1" id="Layer_1" xmlns="http://www.w3.org/2000/svg" xmlns:xlink="http://www.w3.org/1999/xlink" x="0px" y="0px"
	 viewBox="0 0 1000 265.5" style="enable-background:new 0 0 1000 265.5;" xml:space="preserve">
<path d="M131.9,232.7c0-70,38.4-126.7,85.8-126.7c16.9,0,32.7,7.2,45.9,19.7C260,56.1,202.4,0.8,131.9,0.8
	c-17.1,0-33.5,3.3-48.5,9.2c8.3-0.9,17-1.5,26.1-1.5c50.9,0,92.2,16,92.2,35.8c0,19.8-41.3,35.8-92.2,35.8c-39,0-72.4-9.4-85.9-22.7
	C8.7,78.8,0,104.7,0,132.7c0,72.9,59.1,131.9,131.9,131.9c0.9,0,1.8,0,2.7,0C132.9,254.4,131.9,243.8,131.9,232.7z"/>
<g>
	<path d="M356.2,4.7v37c0,8.1-2.1,14.1-6.4,18.1c-4.2,4-10.6,6-19.2,6c-8.7,0-15.2-2-19.4-6c-4.2-4-6.4-10-6.4-18.1v-37h12.6v35
		c0,4.9,1.1,8.6,3.2,11.1c2.2,2.5,5.4,3.7,9.7,3.7c4.3,0,7.6-1.2,9.8-3.7c2.2-2.5,3.3-6.2,3.3-11v-35H356.2z"/>
	<path d="M368.3,82.2V24.3h11.1v6.6c1.5-2.7,3.4-4.6,5.6-5.9c2.2-1.3,4.8-2,7.7-2c5.7,0,10.1,1.9,13.3,5.6c3.2,3.7,4.8,9,4.8,15.7
		c0,6.5-1.6,11.7-4.8,15.6c-3.2,3.9-7.5,5.9-12.7,5.9c-3.2,0-5.9-0.6-8.1-1.8c-2.2-1.2-4.1-3-5.7-5.5c0.1,1,0.2,2.1,0.3,3.3
		c0.1,1.2,0.1,2.5,0.1,4v16.5H368.3z M378.9,44.1c0,3.6,0.9,6.4,2.7,8.4c1.8,2,4.2,3,7.4,3c3.2,0,5.6-1,7.4-3c1.8-2,2.7-4.8,2.7-8.4
		c0-3.6-0.9-6.4-2.7-8.5c-1.8-2.1-4.3-3.1-7.4-3.1c-3.1,0-5.5,1-7.3,3.1C379.8,37.7,378.9,40.5,378.9,44.1z"/>
	<path d="M419.5,82.2V24.3h11.1v6.6c1.5-2.7,3.4-4.6,5.6-5.9c2.2-1.3,4.8-2,7.7-2c5.7,0,10.1,1.9,13.3,5.6c3.2,3.7,4.8,9,4.8,15.7
		c0,6.5-1.6,11.7-4.8,15.6c-3.2,3.9-7.5,5.9-12.7,5.9c-3.2,0-5.9-0.6-8.1-1.8c-2.2-1.2-4.1-3-5.7-5.5c0.1,1,0.2,2.1,0.3,3.3
		c0.1,1.2,0.1,2.5,0.1,4v16.5H419.5z M430.1,44.1c0,3.6,0.9,6.4,2.7,8.4c1.8,2,4.2,3,7.4,3c3.2,0,5.6-1,7.4-3c1.8-2,2.7-4.8,2.7-8.4
		c0-3.6-0.9-6.4-2.7-8.5c-1.8-2.1-4.3-3.1-7.4-3.1c-3.1,0-5.5,1-7.3,3.1C431,37.7,430.1,40.5,430.1,44.1z"/>
	<path d="M466.9,57.1l8.9-4.6c0.3,1.5,1.1,2.8,2.4,3.7c1.3,0.9,2.9,1.3,4.8,1.3c1.9,0,3.4-0.3,4.5-1c1.1-0.7,1.6-1.6,1.6-2.9
		c0-1.9-1.9-3.5-5.8-4.8c-1.2-0.4-2.1-0.7-2.8-1c-4.7-1.8-7.9-3.5-9.7-5.3c-1.8-1.8-2.7-4-2.7-6.6c0-3.9,1.5-7.1,4.6-9.5
		c3.1-2.4,7.1-3.6,12.1-3.6c3.6,0,6.7,0.7,9.3,2.2c2.6,1.4,4.5,3.5,5.7,6.1l-8.5,4.2c-0.5-1.5-1.3-2.6-2.4-3.4
		c-1.1-0.8-2.6-1.2-4.3-1.2c-1.7,0-3.1,0.4-4.1,1.1c-1.1,0.7-1.6,1.6-1.6,2.8c0,2,2.6,3.8,7.9,5.5c0.6,0.2,1.1,0.3,1.4,0.4
		c4.4,1.4,7.5,3.1,9.3,5c1.8,1.9,2.8,4.3,2.8,7.3c0,4-1.5,7.1-4.6,9.4c-3.1,2.3-7.2,3.5-12.4,3.5c-4.1,0-7.6-0.8-10.5-2.3
		C469.8,61.8,467.9,59.7,466.9,57.1z"/>
	<path d="M548.6,64.1h-11.2l0.2-5.7c-1.6,2.5-3.5,4.4-5.7,5.5c-2.2,1.2-4.9,1.8-8.1,1.8c-5.3,0-9.5-2-12.8-5.9
		c-3.2-3.9-4.9-9.1-4.9-15.5c0-6.7,1.6-11.9,4.8-15.7c3.2-3.7,7.6-5.6,13.3-5.6c2.9,0,5.5,0.7,7.8,2c2.2,1.3,4.1,3.3,5.6,5.9v-6.6
		h11V64.1z M538,44.1c0-3.6-0.9-6.4-2.7-8.5c-1.8-2.1-4.2-3.1-7.3-3.1c-3.1,0-5.6,1-7.4,3.1c-1.8,2.1-2.7,4.9-2.7,8.5
		c0,3.6,0.9,6.4,2.7,8.4c1.8,2,4.2,3,7.4,3c3.2,0,5.7-1,7.4-3C537.2,50.5,538,47.7,538,44.1z"/>
	<path d="M559.9,64.1V1.2h11.5v62.9H559.9z"/>
	<path d="M623.1,64.1h-11.2l0.2-5.7c-1.6,2.5-3.5,4.4-5.7,5.5c-2.2,1.2-4.9,1.8-8.1,1.8c-5.3,0-9.5-2-12.8-5.9
		c-3.2-3.9-4.8-9.1-4.8-15.5c0-6.7,1.6-11.9,4.8-15.7c3.2-3.7,7.6-5.6,13.3-5.6c2.9,0,5.5,0.7,7.8,2c2.2,1.3,4.1,3.3,5.6,5.9v-6.6
		h11V64.1z M612.5,44.1c0-3.6-0.9-6.4-2.7-8.5c-1.8-2.1-4.2-3.1-7.3-3.1c-3.1,0-5.6,1-7.4,3.1c-1.8,2.1-2.7,4.9-2.7,8.5
		c0,3.6,0.9,6.4,2.7,8.4c1.8,2,4.2,3,7.4,3c3.2,0,5.7-1,7.4-3C611.6,50.5,612.5,47.7,612.5,44.1z"/>
	<path d="M711.6,4.7v37c0,8.1-2.1,14.1-6.4,18.1c-4.2,4-10.6,6-19.2,6c-8.7,0-15.2-2-19.4-6c-4.2-4-6.4-10-6.4-18.1v-37h12.6v35
		c0,4.9,1.1,8.6,3.2,11.1c2.2,2.5,5.4,3.7,9.7,3.7c4.3,0,7.6-1.2,9.8-3.7c2.2-2.5,3.3-6.2,3.3-11v-35H711.6z"/>
	<path d="M723.7,64.1V24.3h11.3v6.3c2.1-2.6,4.3-4.5,6.7-5.7c2.4-1.2,5.1-1.8,8-1.8c3.1,0,5.7,0.5,7.8,1.6c2.1,1,3.8,2.6,5,4.8
		c0.6,1.1,1,2.4,1.3,3.8c0.3,1.4,0.4,3.6,0.4,6.6v1.3v23.3h-11.6V44.4c0-4.9-0.6-8.1-1.7-9.7c-1.1-1.6-3.1-2.4-5.8-2.4
		c-1.6,0-3.1,0.3-4.4,1c-1.3,0.7-2.5,1.6-3.3,2.8c-0.7,0.9-1.2,2-1.5,3.2c-0.3,1.2-0.5,3.1-0.5,5.6v1.6v17.5H723.7z"/>
	<path d="M774.5,7.9c0-1.8,0.7-3.4,2-4.7c1.3-1.3,2.9-2,4.7-2c1.9,0,3.5,0.7,4.8,2c1.3,1.3,2,2.9,2,4.8c0,1.9-0.7,3.5-2,4.8
		c-1.3,1.3-2.9,2-4.8,2c-1.8,0-3.4-0.7-4.7-2C775.2,11.3,774.5,9.7,774.5,7.9z M775.6,64.1V24.3h11.5v39.8H775.6z"/>
	<path d="M840.7,44.3c0,6.1-2.1,11.2-6.3,15.3c-4.2,4.1-9.5,6.1-15.9,6.1c-6.5,0-11.8-2-16-6.1c-4.2-4.1-6.3-9.1-6.3-15.3
		c0-6.1,2.1-11.2,6.3-15.3c4.2-4.1,9.5-6.1,16-6.1c6.4,0,11.7,2,15.9,6C838.6,33,840.7,38.1,840.7,44.3z M828.9,44.2
		c0-3.2-0.9-5.8-2.8-7.8c-1.9-1.9-4.4-2.9-7.6-2.9c-3.2,0-5.7,1-7.6,2.9c-1.9,1.9-2.8,4.5-2.8,7.8c0,3.2,0.9,5.8,2.8,7.8
		c1.9,1.9,4.4,2.9,7.6,2.9c3.2,0,5.7-1,7.6-2.9C828,50.1,828.9,47.5,828.9,44.2z"/>
	<path d="M849.4,64.1V24.3h11.3v6.3c2.1-2.6,4.3-4.5,6.7-5.7c2.4-1.2,5.1-1.8,8-1.8c3.1,0,5.7,0.5,7.8,1.6c2.1,1,3.8,2.6,5,4.8
		c0.6,1.1,1,2.4,1.3,3.8c0.3,1.4,0.4,3.6,0.4,6.6v1.3v23.3h-11.6V44.4c0-4.9-0.6-8.1-1.7-9.7c-1.1-1.6-3.1-2.4-5.8-2.4
		c-1.6,0-3.1,0.3-4.4,1c-1.3,0.7-2.5,1.6-3.3,2.8c-0.7,0.9-1.2,2-1.5,3.2c-0.3,1.2-0.5,3.1-0.5,5.6v1.6v17.5H849.4z"/>
	<path d="M968.2,44.3c0,6.1-2.1,11.2-6.3,15.3c-4.2,4.1-9.5,6.1-15.9,6.1c-6.5,0-11.8-2-16-6.1c-4.2-4.1-6.3-9.1-6.3-15.3
		c0-6.1,2.1-11.2,6.3-15.3c4.2-4.1,9.5-6.1,16-6.1c6.4,0,11.7,2,15.9,6C966.2,33,968.2,38.1,968.2,44.3z M956.5,44.2
		c0-3.2-0.9-5.8-2.8-7.8c-1.9-1.9-4.4-2.9-7.6-2.9c-3.2,0-5.7,1-7.6,2.9c-1.9,1.9-2.8,4.5-2.8,7.8c0,3.2,0.9,5.8,2.8,7.8
		c1.9,1.9,4.4,2.9,7.6,2.9c3.2,0,5.7-1,7.6-2.9C955.5,50.1,956.5,47.5,956.5,44.2z"/>
	<path d="M978.4,64.1V33.3h-5.2v-9.1h5.2v-9c0-5.4,1.2-9.2,3.7-11.5c2.5-2.3,6.5-3.5,12.2-3.5c0.6,0,1.3,0.1,2.2,0.2
		c0.8,0.1,1.9,0.3,3.2,0.7v9.2c-0.7-0.4-1.4-0.7-2-0.8c-0.6-0.2-1.3-0.3-2-0.3c-2,0-3.5,0.5-4.3,1.6c-0.9,1.1-1.3,2.9-1.3,5.5v7.8
		h7.4v9.1H990v30.8H978.4z"/>
	<path d="M305.1,163.8v-59.4h35v10.7h-22.3v12.2h22.3v10.8h-22.3V153h22.3v10.8H305.1z"/>
	<path d="M354.9,163.8V124h11.3v6.3c2.1-2.6,4.3-4.5,6.7-5.7c2.4-1.2,5.1-1.8,8-1.8c3.1,0,5.7,0.5,7.8,1.6c2.1,1,3.8,2.6,5,4.8
		c0.6,1.1,1,2.4,1.3,3.8c0.3,1.4,0.4,3.6,0.4,6.6v1.3v23.3h-11.6v-19.7c0-4.9-0.6-8.1-1.7-9.7c-1.1-1.6-3.1-2.4-5.8-2.4
		c-1.6,0-3.1,0.3-4.4,1c-1.3,0.7-2.5,1.6-3.3,2.8c-0.7,0.9-1.2,2-1.5,3.2c-0.3,1.2-0.5,3.1-0.5,5.6v1.6v17.5H354.9z"/>
	<path d="M449.5,163.2c0,4.2-0.3,7.1-0.8,8.8c-0.5,1.7-1.4,3.2-2.6,4.4c-1.7,1.9-4,3.2-6.7,4.1c-2.7,0.9-6,1.3-9.9,1.3
		c-6.5,0-11.4-1-14.7-3.1c-3.4-2.1-5.2-5.2-5.5-9.4h12.7c0.2,1.5,0.9,2.7,2.1,3.4c1.2,0.7,3,1.1,5.4,1.1c3.1,0,5.4-0.8,6.8-2.4
		c1.4-1.6,2.1-4.3,2.1-8.1v-5.7c-1.5,2.5-3.4,4.3-5.6,5.5c-2.2,1.2-4.8,1.8-7.7,1.8c-5.5,0-9.8-1.9-13.1-5.7
		c-3.3-3.8-4.9-9-4.9-15.5c0-6.6,1.6-11.8,4.8-15.5c3.2-3.7,7.6-5.6,13.2-5.6c2.9,0,5.5,0.7,7.7,2c2.3,1.3,4.1,3.3,5.7,5.9V124h10.9
		V163.2z M439.1,143.9c0-3.5-0.9-6.3-2.7-8.3c-1.8-2-4.2-3-7.3-3c-3.2,0-5.6,1-7.4,3c-1.8,2-2.7,4.8-2.7,8.3c0,3.5,0.9,6.3,2.6,8.3
		c1.8,2,4.2,3,7.4,3c3.2,0,5.6-1,7.4-3C438.2,150.2,439.1,147.4,439.1,143.9z"/>
	<path d="M463.8,107.7c0-1.8,0.7-3.4,2-4.7c1.3-1.3,2.9-2,4.7-2c1.9,0,3.5,0.7,4.8,2c1.3,1.3,2,2.9,2,4.8c0,1.9-0.7,3.5-2,4.8
		c-1.3,1.3-2.9,2-4.8,2c-1.8,0-3.4-0.7-4.7-2C464.4,111,463.8,109.5,463.8,107.7z M464.8,163.8V124h11.5v39.8H464.8z"/>
	<path d="M491.5,163.8V124h11.3v6.3c2.1-2.6,4.3-4.5,6.7-5.7c2.4-1.2,5.1-1.8,8-1.8c3.1,0,5.7,0.5,7.8,1.6c2.1,1,3.8,2.6,5,4.8
		c0.6,1.1,1,2.4,1.3,3.8c0.3,1.4,0.4,3.6,0.4,6.6v1.3v23.3h-11.6v-19.7c0-4.9-0.6-8.1-1.7-9.7c-1.1-1.6-3.1-2.4-5.8-2.4
		c-1.6,0-3.1,0.3-4.4,1c-1.3,0.7-2.5,1.6-3.3,2.8c-0.7,0.9-1.2,2-1.5,3.2c-0.3,1.2-0.5,3.1-0.5,5.6v1.6v17.5H491.5z"/>
	<path d="M585.1,146.8h-29.9c0.5,2.9,1.5,5,3.1,6.4c1.6,1.4,3.8,2.1,6.6,2.1c2.1,0,3.9-0.4,5.5-1.2c1.5-0.8,2.8-2,3.8-3.7l9.3,4.7
		c-2.2,3.5-4.8,6.1-7.9,7.8c-3.1,1.7-6.8,2.5-11,2.5c-6.4,0-11.5-1.9-15.3-5.8c-3.8-3.8-5.6-9-5.6-15.5c0-6.3,2-11.4,5.9-15.4
		c3.9-4,9-6,15.1-6c6.3,0,11.3,1.9,15,5.7c3.7,3.8,5.5,8.9,5.5,15.4c0,0.4,0,0.7,0,1.2C585.3,145.4,585.2,146,585.1,146.8z
		 M573.7,139.8c-0.3-2.5-1.2-4.4-2.7-5.7c-1.5-1.3-3.6-1.9-6.1-1.9s-4.7,0.6-6.2,1.9c-1.6,1.3-2.5,3.2-3,5.7H573.7z"/>
	<path d="M636.2,146.8h-29.9c0.5,2.9,1.5,5,3.1,6.4c1.6,1.4,3.8,2.1,6.6,2.1c2.1,0,3.9-0.4,5.5-1.2c1.5-0.8,2.8-2,3.8-3.7l9.3,4.7
		c-2.2,3.5-4.8,6.1-7.9,7.8c-3.1,1.7-6.8,2.5-11,2.5c-6.4,0-11.5-1.9-15.3-5.8c-3.8-3.8-5.6-9-5.6-15.5c0-6.3,2-11.4,5.9-15.4
		c3.9-4,9-6,15.1-6c6.3,0,11.3,1.9,15,5.7c3.7,3.8,5.5,8.9,5.5,15.4c0,0.4,0,0.7,0,1.2C636.3,145.4,636.3,146,636.2,146.8z
		 M624.8,139.8c-0.3-2.5-1.2-4.4-2.7-5.7c-1.5-1.3-3.6-1.9-6.1-1.9c-2.6,0-4.7,0.6-6.2,1.9c-1.6,1.3-2.6,3.2-3,5.7H624.8z"/>
	<path d="M659.5,134.2c1.2-3.9,2.8-6.8,5-8.7c2.2-1.9,4.9-2.9,8.1-2.9c0.7,0,1.9,0.1,3.6,0.4c0.3,0.1,0.6,0.1,0.7,0.1l-1.7,12.4
		c-0.9-0.4-1.7-0.6-2.6-0.8c-0.9-0.2-1.8-0.3-2.8-0.3c-3.5,0-6,0.9-7.6,2.7c-1.5,1.8-2.3,4.8-2.3,9v17.5h-11.6V124h11.4L659.5,134.2
		z"/>
	<path d="M685.1,107.7c0-1.8,0.7-3.4,2-4.7c1.3-1.3,2.9-2,4.7-2c1.9,0,3.5,0.7,4.8,2c1.3,1.3,2,2.9,2,4.8c0,1.9-0.7,3.5-2,4.8
		c-1.3,1.3-2.9,2-4.8,2c-1.8,0-3.4-0.7-4.7-2C685.7,111,685.1,109.5,685.1,107.7z M686.1,163.8V124h11.5v39.8H686.1z"/>
	<path d="M712.8,163.8V124h11.3v6.3c2.1-2.6,4.3-4.5,6.7-5.7c2.4-1.2,5.1-1.8,8-1.8c3.1,0,5.7,0.5,7.8,1.6c2.1,1,3.8,2.6,5,4.8
		c0.6,1.1,1,2.4,1.3,3.8c0.3,1.4,0.4,3.6,0.4,6.6v1.3v23.3h-11.6v-19.7c0-4.9-0.6-8.1-1.7-9.7c-1.1-1.6-3.1-2.4-5.8-2.4
		c-1.6,0-3.1,0.3-4.4,1c-1.3,0.7-2.5,1.6-3.3,2.8c-0.7,0.9-1.2,2-1.5,3.2c-0.3,1.2-0.5,3.1-0.5,5.6v1.6v17.5H712.8z"/>
	<path d="M807.4,163.2c0,4.2-0.3,7.1-0.8,8.8c-0.5,1.7-1.4,3.2-2.6,4.4c-1.7,1.9-4,3.2-6.7,4.1c-2.7,0.9-6,1.3-9.9,1.3
		c-6.5,0-11.4-1-14.7-3.1c-3.4-2.1-5.2-5.2-5.5-9.4H780c0.2,1.5,0.9,2.7,2.1,3.4c1.2,0.7,3,1.1,5.4,1.1c3.1,0,5.4-0.8,6.8-2.4
		c1.4-1.6,2.1-4.3,2.1-8.1v-5.7c-1.5,2.5-3.4,4.3-5.6,5.5c-2.2,1.2-4.8,1.8-7.7,1.8c-5.5,0-9.8-1.9-13.1-5.7
		c-3.3-3.8-4.9-9-4.9-15.5c0-6.6,1.6-11.8,4.8-15.5c3.2-3.7,7.6-5.6,13.2-5.6c2.9,0,5.5,0.7,7.7,2c2.3,1.3,4.1,3.3,5.7,5.9V124h10.9
		V163.2z M796.9,143.9c0-3.5-0.9-6.3-2.7-8.3c-1.8-2-4.2-3-7.3-3c-3.2,0-5.6,1-7.4,3c-1.8,2-2.7,4.8-2.7,8.3c0,3.5,0.9,6.3,2.6,8.3
		c1.8,2,4.2,3,7.4,3c3.2,0,5.6-1,7.4-3C796,150.2,796.9,147.4,796.9,143.9z"/>
	<path d="M891,163.8h-11.2l0.2-5.7c-1.6,2.5-3.5,4.4-5.7,5.5c-2.2,1.2-4.9,1.8-8.1,1.8c-5.3,0-9.5-2-12.8-5.9
		c-3.2-3.9-4.9-9.1-4.9-15.5c0-6.7,1.6-11.9,4.8-15.7c3.2-3.7,7.6-5.6,13.3-5.6c2.9,0,5.5,0.7,7.8,2c2.2,1.3,4.1,3.3,5.6,5.9V124h11
		V163.8z M880.5,143.9c0-3.6-0.9-6.4-2.7-8.5c-1.8-2.1-4.2-3.1-7.3-3.1c-3.1,0-5.6,1-7.4,3.1c-1.8,2.1-2.7,4.9-2.7,8.5
		c0,3.6,0.9,6.4,2.7,8.4c1.8,2,4.2,3,7.4,3c3.2,0,5.7-1,7.4-3C879.6,150.3,880.5,147.5,880.5,143.9z"/>
	<path d="M905.3,163.8V124h11.3v6.3c2.1-2.6,4.3-4.5,6.7-5.7c2.4-1.2,5.1-1.8,8-1.8c3.1,0,5.7,0.5,7.8,1.6c2.1,1,3.8,2.6,5,4.8
		c0.6,1.1,1,2.4,1.3,3.8c0.3,1.4,0.4,3.6,0.4,6.6v1.3v23.3h-11.6v-19.7c0-4.9-0.6-8.1-1.7-9.7c-1.1-1.6-3.1-2.4-5.8-2.4
		c-1.6,0-3.1,0.3-4.4,1c-1.3,0.7-2.5,1.6-3.3,2.8c-0.7,0.9-1.2,2-1.5,3.2c-0.3,1.2-0.5,3.1-0.5,5.6v1.6v17.5H905.3z"/>
	<path d="M1000,163.8h-11.2l0.2-5.7c-1.6,2.5-3.5,4.4-5.7,5.5c-2.2,1.2-4.9,1.8-8.1,1.8c-5.3,0-9.5-2-12.8-5.9
		c-3.2-3.9-4.8-9.1-4.8-15.5c0-6.7,1.6-12,4.8-15.7c3.2-3.8,7.6-5.6,13.3-5.6c2.9,0,5.4,0.7,7.6,2c2.2,1.3,4.2,3.4,6.2,6.3
		c-0.1-1-0.2-2-0.3-3.2c-0.1-1.2-0.1-2.5-0.1-4v-22.7h11V163.8z M989.4,143.9c0-3.6-0.9-6.4-2.7-8.5c-1.8-2.1-4.2-3.1-7.3-3.1
		c-3.1,0-5.6,1-7.4,3.1c-1.8,2-2.7,4.9-2.7,8.5c0,3.6,0.9,6.4,2.7,8.4c1.8,2,4.2,3,7.4,3c3.2,0,5.7-1,7.4-3
		C988.6,150.3,989.4,147.5,989.4,143.9z"/>
	<path d="M301.3,256l7.1-8c0.9,2.2,2.3,3.9,4.3,5.2c2,1.3,4.2,1.9,6.7,1.9c3,0,5.3-0.7,7.1-2.1c1.7-1.4,2.6-3.3,2.6-5.7
		c0-2.8-2.9-5.6-8.6-8.4c-1.9-0.9-3.3-1.6-4.4-2.2c-5.2-2.7-8.8-5.4-10.8-7.9c-2-2.6-3-5.7-3-9.2c0-4.9,1.9-8.9,5.8-12.1
		c3.9-3.2,8.9-4.7,15.1-4.7c3.6,0,6.7,0.6,9.3,1.9c2.6,1.3,4.9,3.2,6.9,5.9l-7.5,7.2c-0.9-1.7-2.1-3-3.6-3.9
		c-1.5-0.9-3.3-1.3-5.3-1.3c-2.5,0-4.5,0.6-6.1,1.9c-1.5,1.3-2.3,2.9-2.3,4.9c0,3.1,3.1,6,9.2,8.6c1.2,0.5,2.2,0.9,2.8,1.2
		c5,2.3,8.8,4.9,11.2,7.8c2.4,2.9,3.6,6.2,3.6,9.9c0,5.6-1.9,10-5.7,13.3c-3.8,3.3-8.9,5-15.3,5c-4.5,0-8.4-0.8-11.7-2.4
		C305.3,261.2,302.9,259,301.3,256z"/>
	<path d="M383.1,262.4c-1.6,0.9-3.2,1.6-5,2.1c-1.7,0.4-3.6,0.7-5.7,0.7c-6.3,0-11.4-2-15.3-6c-4-4-5.9-9.2-5.9-15.6
		c0-6.3,2-11.3,6-15.3c4-3.9,9.1-5.9,15.5-5.9c2.1,0,4,0.2,5.7,0.6c1.7,0.4,3.3,1,4.8,1.9l-0.1,11.6c-1.2-1.2-2.6-2.2-4.2-2.9
		c-1.6-0.7-3.3-1-5.1-1c-3.2,0-5.8,1-7.8,3c-1.9,2-2.9,4.6-2.9,7.9c0,3.4,1,6,3,8c2,2,4.7,3,8.1,3c1.9,0,3.5-0.3,5-1
		c1.4-0.7,2.8-1.7,4-3.2L383.1,262.4z"/>
	<path d="M394.4,207.4c0-1.8,0.7-3.4,2-4.7c1.3-1.3,2.9-2,4.7-2c1.9,0,3.5,0.7,4.8,2c1.3,1.3,2,2.9,2,4.8c0,1.9-0.7,3.5-2,4.8
		c-1.3,1.3-2.9,2-4.8,2c-1.8,0-3.4-0.7-4.7-2C395.1,210.8,394.4,209.2,394.4,207.4z M395.5,263.6v-39.8H407v39.8H395.5z"/>
	<path d="M460.8,246.5h-29.9c0.5,2.9,1.5,5,3.1,6.4c1.6,1.4,3.8,2.1,6.6,2.1c2.1,0,3.9-0.4,5.5-1.2c1.5-0.8,2.8-2,3.8-3.7l9.3,4.7
		c-2.2,3.5-4.8,6.1-7.9,7.8c-3.1,1.7-6.8,2.5-11,2.5c-6.4,0-11.5-1.9-15.3-5.8c-3.8-3.8-5.6-9-5.6-15.5c0-6.3,2-11.4,5.9-15.4
		c3.9-4,9-6,15.1-6c6.3,0,11.3,1.9,15,5.7c3.7,3.8,5.5,8.9,5.5,15.4c0,0.4,0,0.7,0,1.2C460.9,245.1,460.8,245.7,460.8,246.5z
		 M449.3,239.6c-0.3-2.5-1.2-4.4-2.7-5.7c-1.5-1.3-3.6-1.9-6.1-1.9c-2.6,0-4.7,0.6-6.2,1.9c-1.6,1.3-2.6,3.2-3,5.7H449.3z"/>
	<path d="M472.7,263.6v-39.8H484v6.3c2.1-2.6,4.3-4.5,6.7-5.7c2.4-1.2,5.1-1.8,8-1.8c3.1,0,5.7,0.5,7.8,1.6c2.1,1,3.8,2.6,5,4.8
		c0.6,1.1,1,2.4,1.3,3.8c0.3,1.4,0.4,3.6,0.4,6.6v1.3v23.3h-11.6v-19.7c0-4.9-0.6-8.1-1.7-9.7c-1.1-1.6-3.1-2.4-5.8-2.4
		c-1.6,0-3.1,0.3-4.4,1c-1.3,0.7-2.5,1.6-3.3,2.8c-0.7,0.9-1.2,2-1.5,3.2c-0.3,1.2-0.5,3.1-0.5,5.6v1.6v17.5H472.7z"/>
	<path d="M556.6,262.4c-1.6,0.9-3.2,1.6-5,2.1c-1.7,0.4-3.6,0.7-5.7,0.7c-6.3,0-11.4-2-15.3-6c-4-4-5.9-9.2-5.9-15.6
		c0-6.3,2-11.3,6-15.3c4-3.9,9.1-5.9,15.5-5.9c2.1,0,4,0.2,5.7,0.6c1.7,0.4,3.3,1,4.8,1.9l-0.1,11.6c-1.2-1.2-2.6-2.2-4.2-2.9
		c-1.6-0.7-3.3-1-5.1-1c-3.2,0-5.8,1-7.8,3c-1.9,2-2.9,4.6-2.9,7.9c0,3.4,1,6,3,8c2,2,4.7,3,8.1,3c1.9,0,3.5-0.3,5-1
		c1.4-0.7,2.8-1.7,4-3.2L556.6,262.4z"/>
	<path d="M607.4,246.5h-29.9c0.5,2.9,1.5,5,3.1,6.4c1.6,1.4,3.8,2.1,6.6,2.1c2.1,0,3.9-0.4,5.5-1.2c1.5-0.8,2.8-2,3.8-3.7l9.3,4.7
		c-2.2,3.5-4.8,6.1-7.9,7.8c-3.1,1.7-6.8,2.5-11,2.5c-6.4,0-11.5-1.9-15.3-5.8c-3.8-3.8-5.6-9-5.6-15.5c0-6.3,2-11.4,5.9-15.4
		c3.9-4,9-6,15.1-6c6.3,0,11.3,1.9,15,5.7c3.7,3.8,5.5,8.9,5.5,15.4c0,0.4,0,0.7,0,1.2C607.5,245.1,607.4,245.7,607.4,246.5z
		 M595.9,239.6c-0.3-2.5-1.2-4.4-2.7-5.7c-1.5-1.3-3.6-1.9-6.1-1.9c-2.6,0-4.7,0.6-6.2,1.9c-1.6,1.3-2.6,3.2-3,5.7H595.9z"/>
	<path d="M645.2,256l7.1-8c0.9,2.2,2.3,3.9,4.3,5.2c2,1.3,4.2,1.9,6.7,1.9c3,0,5.3-0.7,7.1-2.1c1.7-1.4,2.6-3.3,2.6-5.7
		c0-2.8-2.9-5.6-8.6-8.4c-1.9-0.9-3.3-1.6-4.4-2.2c-5.2-2.7-8.8-5.4-10.8-7.9c-2-2.6-3-5.7-3-9.2c0-4.9,1.9-8.9,5.8-12.1
		c3.9-3.2,8.9-4.7,15.1-4.7c3.6,0,6.7,0.6,9.3,1.9c2.6,1.3,4.9,3.2,6.9,5.9l-7.5,7.2c-0.9-1.7-2.1-3-3.6-3.9
		c-1.5-0.9-3.3-1.3-5.3-1.3c-2.5,0-4.5,0.6-6.1,1.9c-1.5,1.3-2.3,2.9-2.3,4.9c0,3.1,3.1,6,9.2,8.6c1.2,0.5,2.2,0.9,2.8,1.2
		c5,2.3,8.8,4.9,11.2,7.8c2.4,2.9,3.6,6.2,3.6,9.9c0,5.6-1.9,10-5.7,13.3c-3.8,3.3-8.9,5-15.3,5c-4.5,0-8.4-0.8-11.7-2.4
		C649.2,261.2,646.8,259,645.2,256z"/>
	<path d="M699.1,263.6v-30.8h-5.6v-9.1h5.6v-13.2h11.6v13.2h5.6v9.1h-5.6v30.8H699.1z"/>
	<path d="M737.9,223.8v20.9c0,3.5,0.7,6,2.1,7.5c1.4,1.5,3.6,2.3,6.7,2.3c3.1,0,5.3-0.8,6.7-2.3c1.4-1.5,2.1-4,2.1-7.5v-20.9h11.6
		v20.9c0,7-1.6,12.2-4.9,15.5s-8.3,5-15.2,5c-7,0-12.2-1.6-15.4-5c-3.3-3.3-4.9-8.5-4.9-15.5v-20.9H737.9z"/>
	<path d="M821.1,263.6h-11.2l0.2-5.7c-1.6,2.5-3.5,4.4-5.7,5.5c-2.2,1.2-4.9,1.8-8.1,1.8c-5.3,0-9.5-2-12.8-5.9
		c-3.2-3.9-4.8-9.1-4.8-15.5c0-6.7,1.6-12,4.8-15.7c3.2-3.8,7.6-5.6,13.3-5.6c2.9,0,5.4,0.7,7.6,2c2.2,1.3,4.2,3.4,6.2,6.3
		c-0.1-1-0.2-2-0.3-3.2c-0.1-1.2-0.1-2.5-0.1-4v-22.7h11V263.6z M810.5,243.6c0-3.6-0.9-6.4-2.7-8.5c-1.8-2.1-4.2-3.1-7.3-3.1
		c-3.1,0-5.6,1-7.4,3.1c-1.8,2-2.7,4.9-2.7,8.5c0,3.6,0.9,6.4,2.7,8.4c1.8,2,4.2,3,7.4,3c3.2,0,5.7-1,7.4-3
		C809.6,250,810.5,247.2,810.5,243.6z"/>
	<path d="M874.4,246.5h-29.9c0.5,2.9,1.5,5,3.1,6.4c1.6,1.4,3.8,2.1,6.6,2.1c2.1,0,3.9-0.4,5.5-1.2c1.5-0.8,2.8-2,3.8-3.7l9.3,4.7
		c-2.2,3.5-4.8,6.1-7.9,7.8c-3.1,1.7-6.8,2.5-11,2.5c-6.4,0-11.5-1.9-15.3-5.8c-3.8-3.8-5.6-9-5.6-15.5c0-6.3,2-11.4,5.9-15.4
		c3.9-4,9-6,15.1-6c6.3,0,11.3,1.9,15,5.7c3.7,3.8,5.5,8.9,5.5,15.4c0,0.4,0,0.7,0,1.2C874.6,245.1,874.5,245.7,874.4,246.5z
		 M863,239.6c-0.3-2.5-1.2-4.4-2.7-5.7c-1.5-1.3-3.6-1.9-6.1-1.9s-4.7,0.6-6.2,1.9c-1.6,1.3-2.6,3.2-3,5.7H863z"/>
	<path d="M886.4,263.6v-39.8h11.3v6.3c2.1-2.6,4.3-4.5,6.7-5.7c2.4-1.2,5.1-1.8,8-1.8c3.1,0,5.7,0.5,7.8,1.6c2.1,1,3.8,2.6,5,4.8
		c0.6,1.1,1,2.4,1.3,3.8c0.3,1.4,0.4,3.6,0.4,6.6v1.3v23.3h-11.6v-19.7c0-4.9-0.6-8.1-1.7-9.7c-1.1-1.6-3.1-2.4-5.8-2.4
		c-1.6,0-3.1,0.3-4.4,1c-1.3,0.7-2.5,1.6-3.3,2.8c-0.7,0.9-1.2,2-1.5,3.2c-0.3,1.2-0.5,3.1-0.5,5.6v1.6v17.5H886.4z"/>
	<path d="M942.3,263.6v-30.8h-5.6v-9.1h5.6v-13.2h11.6v13.2h5.6v9.1h-5.6v30.8H942.3z"/>
	<path d="M965.9,256.6l8.9-4.6c0.3,1.5,1.1,2.8,2.4,3.7c1.3,0.9,2.9,1.3,4.8,1.3c1.9,0,3.4-0.3,4.5-1c1.1-0.7,1.6-1.6,1.6-2.9
		c0-1.9-1.9-3.5-5.8-4.8c-1.2-0.4-2.1-0.7-2.8-1c-4.7-1.8-7.9-3.5-9.7-5.3c-1.8-1.8-2.7-4-2.7-6.6c0-3.9,1.5-7.1,4.6-9.5
		c3.1-2.4,7.1-3.6,12.1-3.6c3.6,0,6.7,0.7,9.3,2.2c2.6,1.4,4.5,3.5,5.7,6.1l-8.5,4.2c-0.5-1.5-1.3-2.6-2.4-3.4
		c-1.1-0.8-2.6-1.2-4.3-1.2c-1.7,0-3.1,0.4-4.1,1.1c-1.1,0.7-1.6,1.6-1.6,2.8c0,2,2.6,3.8,7.9,5.5c0.6,0.2,1.1,0.3,1.4,0.4
		c4.4,1.4,7.5,3.1,9.3,5c1.8,1.9,2.8,4.3,2.8,7.3c0,4-1.5,7.1-4.6,9.4c-3.1,2.3-7.2,3.5-12.4,3.5c-4.1,0-7.6-0.8-10.5-2.3
		C968.8,261.3,966.8,259.3,965.9,256.6z"/>
</g>
</svg>
